<?xml version="1.0" standalone="no"?>
<!DOCTYPE svg PUBLIC "-//W3C//DTD SVG 20010904//EN"
 "http://www.w3.org/TR/2001/REC-SVG-20010904/DTD/svg10.dtd">
<svg version="1.0" xmlns="http://www.w3.org/2000/svg"
 width="832.000000pt" height="1248.000000pt" viewBox="0 0 832.000000 1248.000000"
 preserveAspectRatio="xMidYMid meet">
<metadata>
Created by potrace 1.16, written by Peter Selinger 2001-2019
</metadata>
<g transform="translate(0.000000,1248.000000) scale(0.100000,-0.100000)"
fill="#000000" stroke="none">
<path d="M1150 12015 c-6 -7 -153 -222 -326 -476 l-315 -463 3 -125 3 -126
303 -3 302 -2 0 -150 0 -150 140 0 140 0 0 150 0 149 93 3 92 3 3 127 3 127
-93 3 -93 3 -3 473 -2 472 -119 0 c-91 0 -121 -3 -131 -15z m-30 -700 l0 -235
-160 0 c-88 0 -160 3 -160 6 0 7 310 464 316 464 2 0 4 -106 4 -235z"/>
<path d="M2509 10807 c-65 -24 -109 -58 -144 -110 -19 -29 -35 -57 -35 -64 0
-7 -20 -26 -45 -43 -89 -61 -165 -195 -165 -289 0 -15 -13 -43 -30 -63 -54
-65 -83 -143 -88 -233 -3 -69 -9 -91 -45 -164 l-42 -84 -2 -131 c-2 -105 -6
-143 -24 -191 -24 -68 -33 -196 -18 -264 8 -36 6 -53 -12 -100 -25 -65 -35
-232 -18 -295 9 -32 7 -50 -8 -95 -13 -42 -18 -86 -18 -177 l0 -121 42 -84
c47 -94 114 -187 128 -179 6 3 10 14 11 25 3 47 5 54 20 69 11 12 36 16 97 16
99 -1 153 -12 179 -38 47 -46 47 -204 1 -250 -23 -23 -30 -24 -104 -19 -89 6
-91 4 -56 -58 22 -39 24 -40 90 -46 56 -5 73 -10 95 -33 25 -24 27 -34 30
-125 3 -88 2 -101 -16 -119 -11 -11 -25 -21 -31 -23 -14 -5 127 -440 145 -446
6 -2 25 34 42 80 30 79 31 86 17 113 -8 16 -15 46 -15 66 0 46 36 78 89 78 30
0 40 6 59 33 34 51 30 57 -38 57 -52 0 -64 4 -92 29 -31 27 -33 34 -36 108 -2
43 1 91 7 106 16 41 64 57 168 57 116 0 154 -18 167 -77 6 -24 15 -43 20 -42
6 0 45 27 86 59 41 33 94 69 117 79 73 34 153 90 153 107 0 12 -6 15 -25 10
-13 -3 -54 -7 -91 -7 -96 -2 -109 13 -109 131 0 141 33 168 206 169 120 1 133
-7 135 -81 0 -29 5 -53 10 -53 14 0 142 231 159 287 19 64 15 245 -7 303 -9
24 -12 50 -7 65 4 14 7 75 8 135 0 91 -4 122 -23 180 -21 62 -23 77 -14 125
15 78 3 190 -27 263 -22 53 -26 76 -25 162 1 113 -16 185 -60 255 -23 37 -29
60 -33 125 -5 95 -34 176 -81 231 -25 30 -35 52 -40 95 -13 102 -73 205 -151
259 -27 18 -54 49 -66 73 -27 54 -84 113 -134 140 -33 17 -61 22 -155 24 -78
2 -127 -1 -151 -10z m68 -150 c12 -19 4 -80 -13 -98 -22 -24 -65 -24 -95 0
-20 16 -22 23 -14 47 19 53 100 87 122 51z m193 8 c16 -9 37 -30 46 -47 16
-31 16 -32 -10 -55 -36 -31 -89 -31 -110 -1 -24 33 -20 84 6 102 28 20 32 20
68 1z m210 -224 c37 -38 65 -111 58 -147 -5 -26 -46 -45 -93 -42 -35 3 -42 8
-57 38 -9 19 -19 61 -23 92 -5 49 -4 59 14 77 31 31 60 26 101 -18z m-575 9
c16 -18 17 -26 5 -96 -15 -85 -36 -114 -83 -114 -30 0 -67 16 -80 34 -18 27
22 135 65 176 28 26 70 26 93 0z m294 -11 c38 -13 59 -50 67 -116 8 -71 -6
-100 -58 -114 -64 -17 -158 -6 -180 21 -21 26 -23 97 -4 150 21 59 99 85 175
59z m384 -280 c37 -17 69 -82 74 -153 5 -58 4 -64 -20 -83 -17 -13 -49 -22
-91 -27 -107 -11 -129 10 -142 140 -5 50 -3 69 10 88 25 40 118 58 169 35z
m-754 -10 c42 -15 53 -45 45 -123 -13 -124 -34 -143 -146 -133 -97 9 -123 51
-93 153 23 78 60 114 118 114 24 0 59 -5 76 -11z m419 -45 c30 -21 43 -55 47
-124 6 -109 -27 -134 -172 -128 -89 3 -96 5 -119 31 -42 48 -28 177 23 217 21
17 40 20 112 20 63 0 93 -4 109 -16z m-503 -304 c46 -7 66 -16 84 -37 22 -25
23 -32 17 -110 -6 -89 -12 -107 -45 -137 -18 -16 -32 -18 -106 -14 -128 8
-162 41 -151 145 8 78 32 129 69 147 38 18 52 19 132 6z m950 -12 c32 -28 54
-98 51 -166 -2 -79 -29 -101 -135 -111 -127 -13 -153 -1 -170 80 -18 84 -12
155 15 187 11 14 90 31 146 32 55 0 71 -4 93 -22z m-413 -57 c49 -55 51 -193
3 -240 -23 -24 -34 -26 -122 -30 -168 -6 -203 19 -203 144 0 67 17 126 41 141
27 16 86 23 169 19 79 -4 87 -6 112 -34z m-520 -332 c50 -13 68 -48 68 -134 0
-75 -18 -128 -51 -145 -36 -20 -194 -7 -228 17 -79 59 -56 259 32 276 29 6
132 -2 179 -14z m1001 -8 c30 -36 43 -121 28 -178 -17 -64 -45 -82 -142 -93
-96 -11 -141 -6 -164 20 -23 25 -39 149 -25 199 17 66 48 79 187 80 89 1 92 0
116 -28z m-489 -31 c38 -14 57 -61 59 -143 2 -131 -26 -152 -201 -152 l-124 0
-29 33 c-27 30 -29 38 -29 115 0 90 12 125 50 144 30 15 236 18 274 3z m-521
-351 c55 -15 72 -47 72 -139 0 -138 -31 -168 -161 -156 -154 14 -189 46 -189
171 0 77 18 118 58 136 25 10 163 3 220 -12z m1026 6 c36 -18 51 -60 51 -139
0 -65 -22 -116 -58 -135 -11 -6 -60 -15 -110 -21 -162 -18 -197 13 -190 167 4
94 24 118 112 131 94 15 164 14 195 -3z m-482 -61 c33 -21 43 -53 43 -140 0
-128 -22 -144 -195 -144 -171 0 -195 19 -195 153 0 136 37 160 234 151 58 -3
98 -10 113 -20z m488 -328 c48 -20 58 -46 53 -137 -5 -130 -42 -160 -204 -167
-96 -4 -101 -3 -130 21 -28 25 -29 28 -29 120 0 87 2 98 24 121 26 27 47 34
163 46 40 4 77 8 81 9 4 0 23 -5 42 -13z m-1011 -24 c50 -29 70 -125 45 -215
-16 -59 -42 -70 -157 -65 -154 6 -202 48 -202 176 0 64 11 97 39 120 24 20
235 8 275 -16z m533 -55 c26 -26 28 -32 28 -117 0 -85 -2 -91 -28 -117 -26
-27 -32 -28 -148 -31 -181 -5 -209 14 -209 147 0 134 25 152 207 149 119 -3
123 -4 150 -31z m-27 -375 c45 -22 64 -74 56 -155 -11 -114 -38 -130 -207
-125 -114 3 -120 4 -146 31 -25 24 -28 36 -31 105 -5 133 29 162 193 162 75 0
109 -4 135 -18z"/>
<path d="M5879 10807 c-65 -24 -109 -58 -144 -110 -19 -29 -35 -57 -35 -64 0
-7 -20 -26 -45 -43 -89 -61 -165 -195 -165 -289 0 -15 -13 -43 -30 -63 -54
-65 -83 -143 -88 -233 -3 -69 -9 -91 -45 -164 l-42 -84 -2 -131 c-2 -105 -6
-143 -24 -191 -24 -68 -33 -196 -18 -264 8 -36 6 -53 -12 -100 -25 -65 -35
-232 -18 -295 9 -32 7 -50 -8 -95 -13 -42 -18 -86 -18 -177 l0 -121 42 -84
c47 -94 114 -187 128 -179 6 3 10 14 11 25 3 47 5 54 20 69 11 12 36 16 97 16
99 -1 153 -12 179 -38 47 -46 47 -204 1 -250 -23 -23 -30 -24 -104 -19 -89 6
-91 4 -56 -58 22 -39 24 -40 90 -46 56 -5 73 -10 95 -33 25 -24 27 -34 30
-125 3 -88 2 -101 -16 -119 -11 -11 -25 -21 -31 -23 -14 -5 127 -440 145 -446
6 -2 25 34 42 80 30 79 31 86 17 113 -8 16 -15 46 -15 66 0 46 36 78 89 78 30
0 40 6 59 33 34 51 30 57 -38 57 -52 0 -64 4 -92 29 -31 27 -33 34 -36 108 -2
43 1 91 7 106 16 41 64 57 168 57 116 0 154 -18 167 -77 6 -24 15 -43 20 -42
6 0 45 27 86 59 41 33 94 69 117 79 73 34 153 90 153 107 0 12 -6 15 -25 10
-13 -3 -54 -7 -91 -7 -96 -2 -109 13 -109 131 0 141 33 168 206 169 120 1 133
-7 135 -81 0 -29 5 -53 10 -53 14 0 142 231 159 287 19 64 15 245 -7 303 -9
24 -12 50 -7 65 4 14 7 75 8 135 0 91 -4 122 -23 180 -21 62 -23 77 -14 125
15 78 3 190 -27 263 -22 53 -26 76 -25 162 1 113 -16 185 -60 255 -23 37 -29
60 -33 125 -5 95 -34 176 -81 231 -25 30 -35 52 -40 95 -13 102 -73 205 -151
259 -27 18 -54 49 -66 73 -27 54 -84 113 -134 140 -33 17 -61 22 -155 24 -78
2 -127 -1 -151 -10z m68 -150 c12 -19 4 -80 -13 -98 -22 -24 -65 -24 -95 0
-20 16 -22 23 -14 47 19 53 100 87 122 51z m193 8 c16 -9 37 -30 46 -47 16
-31 16 -32 -10 -55 -36 -31 -89 -31 -110 -1 -24 33 -20 84 6 102 28 20 32 20
68 1z m210 -224 c37 -38 65 -111 58 -147 -5 -26 -46 -45 -93 -42 -35 3 -42 8
-57 38 -9 19 -19 61 -23 92 -5 49 -4 59 14 77 31 31 60 26 101 -18z m-575 9
c16 -18 17 -26 5 -96 -15 -85 -36 -114 -83 -114 -30 0 -67 16 -80 34 -18 27
22 135 65 176 28 26 70 26 93 0z m294 -11 c38 -13 59 -50 67 -116 8 -71 -6
-100 -58 -114 -64 -17 -158 -6 -180 21 -21 26 -23 97 -4 150 21 59 99 85 175
59z m384 -280 c37 -17 69 -82 74 -153 5 -58 4 -64 -20 -83 -17 -13 -49 -22
-91 -27 -107 -11 -129 10 -142 140 -5 50 -3 69 10 88 25 40 118 58 169 35z
m-754 -10 c42 -15 53 -45 45 -123 -13 -124 -34 -143 -146 -133 -97 9 -123 51
-93 153 23 78 60 114 118 114 24 0 59 -5 76 -11z m419 -45 c30 -21 43 -55 47
-124 6 -109 -27 -134 -172 -128 -89 3 -96 5 -119 31 -42 48 -28 177 23 217 21
17 40 20 112 20 63 0 93 -4 109 -16z m-503 -304 c46 -7 66 -16 84 -37 22 -25
23 -32 17 -110 -6 -89 -12 -107 -45 -137 -18 -16 -32 -18 -106 -14 -128 8
-162 41 -151 145 8 78 32 129 69 147 38 18 52 19 132 6z m950 -12 c32 -28 54
-98 51 -166 -2 -79 -29 -101 -135 -111 -127 -13 -153 -1 -170 80 -18 84 -12
155 15 187 11 14 90 31 146 32 55 0 71 -4 93 -22z m-413 -57 c49 -55 51 -193
3 -240 -23 -24 -34 -26 -122 -30 -168 -6 -203 19 -203 144 0 67 17 126 41 141
27 16 86 23 169 19 79 -4 87 -6 112 -34z m-520 -332 c50 -13 68 -48 68 -134 0
-75 -18 -128 -51 -145 -36 -20 -194 -7 -228 17 -79 59 -56 259 32 276 29 6
132 -2 179 -14z m1001 -8 c30 -36 43 -121 28 -178 -17 -64 -45 -82 -142 -93
-96 -11 -141 -6 -164 20 -23 25 -39 149 -25 199 17 66 48 79 187 80 89 1 92 0
116 -28z m-489 -31 c38 -14 57 -61 59 -143 2 -131 -26 -152 -201 -152 l-124 0
-29 33 c-27 30 -29 38 -29 115 0 90 12 125 50 144 30 15 236 18 274 3z m-521
-351 c55 -15 72 -47 72 -139 0 -138 -31 -168 -161 -156 -154 14 -189 46 -189
171 0 77 18 118 58 136 25 10 163 3 220 -12z m1026 6 c36 -18 51 -60 51 -139
0 -65 -22 -116 -58 -135 -11 -6 -60 -15 -110 -21 -162 -18 -197 13 -190 167 4
94 24 118 112 131 94 15 164 14 195 -3z m-482 -61 c33 -21 43 -53 43 -140 0
-128 -22 -144 -195 -144 -171 0 -195 19 -195 153 0 136 37 160 234 151 58 -3
98 -10 113 -20z m488 -328 c48 -20 58 -46 53 -137 -5 -130 -42 -160 -204 -167
-96 -4 -101 -3 -130 21 -28 25 -29 28 -29 120 0 87 2 98 24 121 26 27 47 34
163 46 40 4 77 8 81 9 4 0 23 -5 42 -13z m-1011 -24 c50 -29 70 -125 45 -215
-16 -59 -42 -70 -157 -65 -154 6 -202 48 -202 176 0 64 11 97 39 120 24 20
235 8 275 -16z m533 -55 c26 -26 28 -32 28 -117 0 -85 -2 -91 -28 -117 -26
-27 -32 -28 -148 -31 -181 -5 -209 14 -209 147 0 134 25 152 207 149 119 -3
123 -4 150 -31z m-27 -375 c45 -22 64 -74 56 -155 -11 -114 -38 -130 -207
-125 -114 3 -120 4 -146 31 -25 24 -28 36 -31 105 -5 133 29 162 193 162 75 0
109 -4 135 -18z"/>
<path d="M3915 8645 c-131 -37 -276 -137 -377 -262 -64 -80 -96 -130 -174
-278 -69 -131 -136 -205 -243 -271 -150 -93 -237 -159 -326 -249 -105 -105
-167 -193 -234 -337 -92 -195 -101 -299 -38 -433 46 -96 98 -170 192 -275 88
-97 125 -162 124 -217 l0 -38 -13 40 c-20 63 -32 81 -118 173 -173 185 -227
286 -312 577 -138 476 -266 772 -457 1060 -175 263 -331 403 -515 464 -115 38
-263 40 -298 6 -14 -14 -11 -55 4 -55 4 0 36 -21 69 -46 68 -51 138 -142 177
-229 30 -70 68 -227 83 -350 7 -49 14 -106 16 -125 39 -315 65 -440 132 -645
107 -327 308 -615 536 -767 164 -110 201 -134 222 -146 37 -20 175 -52 230
-53 46 -1 48 -1 20 -10 -36 -11 -129 -3 -208 18 -32 9 -60 13 -63 10 -3 -3 -1
-36 5 -74 7 -43 8 -90 2 -127 -14 -101 -8 -136 31 -172 46 -41 106 -54 262
-54 143 0 208 15 250 59 31 33 33 46 26 201 -6 150 35 214 226 354 322 233
529 629 608 1161 14 96 20 142 32 265 22 231 53 377 105 488 30 66 54 99 111
156 40 39 96 83 123 97 46 23 52 31 46 67 -4 32 -162 42 -256 17z"/>
<path d="M7285 8645 c-131 -37 -276 -137 -377 -262 -64 -80 -96 -130 -174
-278 -69 -131 -136 -205 -243 -271 -150 -93 -237 -159 -326 -249 -105 -105
-167 -193 -234 -337 -92 -195 -101 -299 -38 -433 46 -96 98 -170 192 -275 88
-97 125 -162 124 -217 l0 -38 -13 40 c-20 63 -32 81 -118 173 -173 185 -227
286 -312 577 -138 476 -266 772 -457 1060 -175 263 -331 403 -515 464 -115 38
-263 40 -298 6 -14 -14 -11 -55 4 -55 4 0 36 -21 69 -46 68 -51 138 -142 177
-229 30 -70 68 -227 83 -350 7 -49 14 -106 16 -125 39 -315 65 -440 132 -645
107 -327 308 -615 536 -767 164 -110 201 -134 222 -146 37 -20 175 -52 230
-53 46 -1 48 -1 20 -10 -36 -11 -129 -3 -208 18 -32 9 -60 13 -63 10 -3 -3 -1
-36 5 -74 7 -43 8 -90 2 -127 -14 -101 -8 -136 31 -172 46 -41 106 -54 262
-54 143 0 208 15 250 59 31 33 33 46 26 201 -6 150 35 214 226 354 322 233
529 629 608 1161 14 96 20 142 32 265 22 231 53 377 105 488 30 66 54 99 111
156 40 39 96 83 123 97 46 23 52 31 46 67 -4 32 -162 42 -256 17z"/>
<path d="M2509 5447 c-65 -24 -109 -58 -144 -110 -19 -29 -35 -57 -35 -64 0
-7 -20 -26 -45 -43 -89 -61 -165 -195 -165 -289 0 -15 -13 -43 -30 -63 -54
-65 -83 -143 -88 -233 -3 -69 -9 -91 -45 -164 l-42 -84 -2 -131 c-2 -105 -6
-143 -24 -191 -24 -68 -33 -196 -18 -264 8 -36 6 -53 -12 -100 -25 -65 -35
-232 -18 -295 9 -32 7 -50 -8 -95 -13 -42 -18 -86 -18 -177 l0 -121 42 -84
c47 -94 114 -187 128 -179 6 3 10 14 11 25 3 47 5 54 20 69 11 12 36 16 97 16
99 -1 153 -12 179 -38 47 -46 47 -204 1 -250 -23 -23 -30 -24 -104 -19 -89 6
-91 4 -56 -58 22 -39 24 -40 90 -46 56 -5 73 -10 95 -33 25 -24 27 -34 30
-125 3 -88 2 -101 -16 -119 -11 -11 -25 -21 -31 -23 -14 -5 127 -440 145 -446
6 -2 25 34 42 80 30 79 31 86 17 113 -8 16 -15 46 -15 66 0 46 36 78 89 78 30
0 40 6 59 33 34 51 30 57 -38 57 -52 0 -64 4 -92 29 -31 27 -33 34 -36 108 -2
43 1 91 7 106 16 41 64 57 168 57 116 0 154 -18 167 -77 6 -24 15 -43 20 -42
6 0 45 27 86 59 41 33 94 69 117 79 73 34 153 90 153 107 0 12 -6 15 -25 10
-13 -3 -54 -7 -91 -7 -96 -2 -109 13 -109 131 0 141 33 168 206 169 120 1 133
-7 135 -81 0 -29 5 -53 10 -53 14 0 142 231 159 287 19 64 15 245 -7 303 -9
24 -12 50 -7 65 4 14 7 75 8 135 0 91 -4 122 -23 180 -21 62 -23 77 -14 125
15 78 3 190 -27 263 -22 53 -26 76 -25 162 1 113 -16 185 -60 255 -23 37 -29
60 -33 125 -5 95 -34 176 -81 231 -25 30 -35 52 -40 95 -13 102 -73 205 -151
259 -27 18 -54 49 -66 73 -27 54 -84 113 -134 140 -33 17 -61 22 -155 24 -78
2 -127 -1 -151 -10z m68 -150 c12 -19 4 -80 -13 -98 -22 -24 -65 -24 -95 0
-20 16 -22 23 -14 47 19 53 100 87 122 51z m193 8 c16 -9 37 -30 46 -47 16
-31 16 -32 -10 -55 -36 -31 -89 -31 -110 -1 -24 33 -20 84 6 102 28 20 32 20
68 1z m210 -224 c37 -38 65 -111 58 -147 -5 -26 -46 -45 -93 -42 -35 3 -42 8
-57 38 -9 19 -19 61 -23 92 -5 49 -4 59 14 77 31 31 60 26 101 -18z m-575 9
c16 -18 17 -26 5 -96 -15 -85 -36 -114 -83 -114 -30 0 -67 16 -80 34 -18 27
22 135 65 176 28 26 70 26 93 0z m294 -11 c38 -13 59 -50 67 -116 8 -71 -6
-100 -58 -114 -64 -17 -158 -6 -180 21 -21 26 -23 97 -4 150 21 59 99 85 175
59z m384 -280 c37 -17 69 -82 74 -153 5 -58 4 -64 -20 -83 -17 -13 -49 -22
-91 -27 -107 -11 -129 10 -142 140 -5 50 -3 69 10 88 25 40 118 58 169 35z
m-754 -10 c42 -15 53 -45 45 -123 -13 -124 -34 -143 -146 -133 -97 9 -123 51
-93 153 23 78 60 114 118 114 24 0 59 -5 76 -11z m419 -45 c30 -21 43 -55 47
-124 6 -109 -27 -134 -172 -128 -89 3 -96 5 -119 31 -42 48 -28 177 23 217 21
17 40 20 112 20 63 0 93 -4 109 -16z m-503 -304 c46 -7 66 -16 84 -37 22 -25
23 -32 17 -110 -6 -89 -12 -107 -45 -137 -18 -16 -32 -18 -106 -14 -128 8
-162 41 -151 145 8 78 32 129 69 147 38 18 52 19 132 6z m950 -12 c32 -28 54
-98 51 -166 -2 -79 -29 -101 -135 -111 -127 -13 -153 -1 -170 80 -18 84 -12
155 15 187 11 14 90 31 146 32 55 0 71 -4 93 -22z m-413 -57 c49 -55 51 -193
3 -240 -23 -24 -34 -26 -122 -30 -168 -6 -203 19 -203 144 0 67 17 126 41 141
27 16 86 23 169 19 79 -4 87 -6 112 -34z m-520 -332 c50 -13 68 -48 68 -134 0
-75 -18 -128 -51 -145 -36 -20 -194 -7 -228 17 -79 59 -56 259 32 276 29 6
132 -2 179 -14z m1001 -8 c30 -36 43 -121 28 -178 -17 -64 -45 -82 -142 -93
-96 -11 -141 -6 -164 20 -23 25 -39 149 -25 199 17 66 48 79 187 80 89 1 92 0
116 -28z m-489 -31 c38 -14 57 -61 59 -143 2 -131 -26 -152 -201 -152 l-124 0
-29 33 c-27 30 -29 38 -29 115 0 90 12 125 50 144 30 15 236 18 274 3z m-521
-351 c55 -15 72 -47 72 -139 0 -138 -31 -168 -161 -156 -154 14 -189 46 -189
171 0 77 18 118 58 136 25 10 163 3 220 -12z m1026 6 c36 -18 51 -60 51 -139
0 -65 -22 -116 -58 -135 -11 -6 -60 -15 -110 -21 -162 -18 -197 13 -190 167 4
94 24 118 112 131 94 15 164 14 195 -3z m-482 -61 c33 -21 43 -53 43 -140 0
-128 -22 -144 -195 -144 -171 0 -195 19 -195 153 0 136 37 160 234 151 58 -3
98 -10 113 -20z m488 -328 c48 -20 58 -46 53 -137 -5 -130 -42 -160 -204 -167
-96 -4 -101 -3 -130 21 -28 25 -29 28 -29 120 0 87 2 98 24 121 26 27 47 34
163 46 40 4 77 8 81 9 4 0 23 -5 42 -13z m-1011 -24 c50 -29 70 -125 45 -215
-16 -59 -42 -70 -157 -65 -154 6 -202 48 -202 176 0 64 11 97 39 120 24 20
235 8 275 -16z m533 -55 c26 -26 28 -32 28 -117 0 -85 -2 -91 -28 -117 -26
-27 -32 -28 -148 -31 -181 -5 -209 14 -209 147 0 134 25 152 207 149 119 -3
123 -4 150 -31z m-27 -375 c45 -22 64 -74 56 -155 -11 -114 -38 -130 -207
-125 -114 3 -120 4 -146 31 -25 24 -28 36 -31 105 -5 133 29 162 193 162 75 0
109 -4 135 -18z"/>
<path d="M5879 5447 c-65 -24 -109 -58 -144 -110 -19 -29 -35 -57 -35 -64 0
-7 -20 -26 -45 -43 -89 -61 -165 -195 -165 -289 0 -15 -13 -43 -30 -63 -54
-65 -83 -143 -88 -233 -3 -69 -9 -91 -45 -164 l-42 -84 -2 -131 c-2 -105 -6
-143 -24 -191 -24 -68 -33 -196 -18 -264 8 -36 6 -53 -12 -100 -25 -65 -35
-232 -18 -295 9 -32 7 -50 -8 -95 -13 -42 -18 -86 -18 -177 l0 -121 42 -84
c47 -94 114 -187 128 -179 6 3 10 14 11 25 3 47 5 54 20 69 11 12 36 16 97 16
99 -1 153 -12 179 -38 47 -46 47 -204 1 -250 -23 -23 -30 -24 -104 -19 -89 6
-91 4 -56 -58 22 -39 24 -40 90 -46 56 -5 73 -10 95 -33 25 -24 27 -34 30
-125 3 -88 2 -101 -16 -119 -11 -11 -25 -21 -31 -23 -14 -5 127 -440 145 -446
6 -2 25 34 42 80 30 79 31 86 17 113 -8 16 -15 46 -15 66 0 46 36 78 89 78 30
0 40 6 59 33 34 51 30 57 -38 57 -52 0 -64 4 -92 29 -31 27 -33 34 -36 108 -2
43 1 91 7 106 16 41 64 57 168 57 116 0 154 -18 167 -77 6 -24 15 -43 20 -42
6 0 45 27 86 59 41 33 94 69 117 79 73 34 153 90 153 107 0 12 -6 15 -25 10
-13 -3 -54 -7 -91 -7 -96 -2 -109 13 -109 131 0 141 33 168 206 169 120 1 133
-7 135 -81 0 -29 5 -53 10 -53 14 0 142 231 159 287 19 64 15 245 -7 303 -9
24 -12 50 -7 65 4 14 7 75 8 135 0 91 -4 122 -23 180 -21 62 -23 77 -14 125
15 78 3 190 -27 263 -22 53 -26 76 -25 162 1 113 -16 185 -60 255 -23 37 -29
60 -33 125 -5 95 -34 176 -81 231 -25 30 -35 52 -40 95 -13 102 -73 205 -151
259 -27 18 -54 49 -66 73 -27 54 -84 113 -134 140 -33 17 -61 22 -155 24 -78
2 -127 -1 -151 -10z m68 -150 c12 -19 4 -80 -13 -98 -22 -24 -65 -24 -95 0
-20 16 -22 23 -14 47 19 53 100 87 122 51z m193 8 c16 -9 37 -30 46 -47 16
-31 16 -32 -10 -55 -36 -31 -89 -31 -110 -1 -24 33 -20 84 6 102 28 20 32 20
68 1z m210 -224 c37 -38 65 -111 58 -147 -5 -26 -46 -45 -93 -42 -35 3 -42 8
-57 38 -9 19 -19 61 -23 92 -5 49 -4 59 14 77 31 31 60 26 101 -18z m-575 9
c16 -18 17 -26 5 -96 -15 -85 -36 -114 -83 -114 -30 0 -67 16 -80 34 -18 27
22 135 65 176 28 26 70 26 93 0z m294 -11 c38 -13 59 -50 67 -116 8 -71 -6
-100 -58 -114 -64 -17 -158 -6 -180 21 -21 26 -23 97 -4 150 21 59 99 85 175
59z m384 -280 c37 -17 69 -82 74 -153 5 -58 4 -64 -20 -83 -17 -13 -49 -22
-91 -27 -107 -11 -129 10 -142 140 -5 50 -3 69 10 88 25 40 118 58 169 35z
m-754 -10 c42 -15 53 -45 45 -123 -13 -124 -34 -143 -146 -133 -97 9 -123 51
-93 153 23 78 60 114 118 114 24 0 59 -5 76 -11z m419 -45 c30 -21 43 -55 47
-124 6 -109 -27 -134 -172 -128 -89 3 -96 5 -119 31 -42 48 -28 177 23 217 21
17 40 20 112 20 63 0 93 -4 109 -16z m-503 -304 c46 -7 66 -16 84 -37 22 -25
23 -32 17 -110 -6 -89 -12 -107 -45 -137 -18 -16 -32 -18 -106 -14 -128 8
-162 41 -151 145 8 78 32 129 69 147 38 18 52 19 132 6z m950 -12 c32 -28 54
-98 51 -166 -2 -79 -29 -101 -135 -111 -127 -13 -153 -1 -170 80 -18 84 -12
155 15 187 11 14 90 31 146 32 55 0 71 -4 93 -22z m-413 -57 c49 -55 51 -193
3 -240 -23 -24 -34 -26 -122 -30 -168 -6 -203 19 -203 144 0 67 17 126 41 141
27 16 86 23 169 19 79 -4 87 -6 112 -34z m-520 -332 c50 -13 68 -48 68 -134 0
-75 -18 -128 -51 -145 -36 -20 -194 -7 -228 17 -79 59 -56 259 32 276 29 6
132 -2 179 -14z m1001 -8 c30 -36 43 -121 28 -178 -17 -64 -45 -82 -142 -93
-96 -11 -141 -6 -164 20 -23 25 -39 149 -25 199 17 66 48 79 187 80 89 1 92 0
116 -28z m-489 -31 c38 -14 57 -61 59 -143 2 -131 -26 -152 -201 -152 l-124 0
-29 33 c-27 30 -29 38 -29 115 0 90 12 125 50 144 30 15 236 18 274 3z m-521
-351 c55 -15 72 -47 72 -139 0 -138 -31 -168 -161 -156 -154 14 -189 46 -189
171 0 77 18 118 58 136 25 10 163 3 220 -12z m1026 6 c36 -18 51 -60 51 -139
0 -65 -22 -116 -58 -135 -11 -6 -60 -15 -110 -21 -162 -18 -197 13 -190 167 4
94 24 118 112 131 94 15 164 14 195 -3z m-482 -61 c33 -21 43 -53 43 -140 0
-128 -22 -144 -195 -144 -171 0 -195 19 -195 153 0 136 37 160 234 151 58 -3
98 -10 113 -20z m488 -328 c48 -20 58 -46 53 -137 -5 -130 -42 -160 -204 -167
-96 -4 -101 -3 -130 21 -28 25 -29 28 -29 120 0 87 2 98 24 121 26 27 47 34
163 46 40 4 77 8 81 9 4 0 23 -5 42 -13z m-1011 -24 c50 -29 70 -125 45 -215
-16 -59 -42 -70 -157 -65 -154 6 -202 48 -202 176 0 64 11 97 39 120 24 20
235 8 275 -16z m533 -55 c26 -26 28 -32 28 -117 0 -85 -2 -91 -28 -117 -26
-27 -32 -28 -148 -31 -181 -5 -209 14 -209 147 0 134 25 152 207 149 119 -3
123 -4 150 -31z m-27 -375 c45 -22 64 -74 56 -155 -11 -114 -38 -130 -207
-125 -114 3 -120 4 -146 31 -25 24 -28 36 -31 105 -5 133 29 162 193 162 75 0
109 -4 135 -18z"/>
<path d="M3915 3285 c-131 -37 -276 -137 -377 -262 -64 -80 -96 -130 -174
-278 -69 -131 -136 -205 -243 -271 -150 -93 -237 -159 -326 -249 -105 -105
-167 -193 -234 -337 -92 -195 -101 -299 -38 -433 46 -96 98 -170 192 -275 88
-97 125 -162 124 -217 l0 -38 -13 40 c-20 63 -32 81 -118 173 -173 185 -227
286 -312 577 -138 476 -266 772 -457 1060 -175 263 -331 403 -515 464 -115 38
-263 40 -298 6 -14 -14 -11 -55 4 -55 4 0 36 -21 69 -46 68 -51 138 -142 177
-229 30 -70 68 -227 83 -350 7 -49 14 -106 16 -125 39 -315 65 -440 132 -645
107 -327 308 -615 536 -767 164 -110 201 -134 222 -146 37 -20 175 -52 230
-53 46 -1 48 -1 20 -10 -36 -11 -129 -3 -208 18 -32 9 -60 13 -63 10 -3 -3 -1
-36 5 -74 7 -43 8 -90 2 -127 -14 -101 -8 -136 31 -172 46 -41 106 -54 262
-54 143 0 208 15 250 59 31 33 33 46 26 201 -6 150 35 214 226 354 322 233
529 629 608 1161 14 96 20 142 32 265 22 231 53 377 105 488 30 66 54 99 111
156 40 39 96 83 123 97 46 23 52 31 46 67 -4 32 -162 42 -256 17z"/>
<path d="M7285 3285 c-131 -37 -276 -137 -377 -262 -64 -80 -96 -130 -174
-278 -69 -131 -136 -205 -243 -271 -150 -93 -237 -159 -326 -249 -105 -105
-167 -193 -234 -337 -92 -195 -101 -299 -38 -433 46 -96 98 -170 192 -275 88
-97 125 -162 124 -217 l0 -38 -13 40 c-20 63 -32 81 -118 173 -173 185 -227
286 -312 577 -138 476 -266 772 -457 1060 -175 263 -331 403 -515 464 -115 38
-263 40 -298 6 -14 -14 -11 -55 4 -55 4 0 36 -21 69 -46 68 -51 138 -142 177
-229 30 -70 68 -227 83 -350 7 -49 14 -106 16 -125 39 -315 65 -440 132 -645
107 -327 308 -615 536 -767 164 -110 201 -134 222 -146 37 -20 175 -52 230
-53 46 -1 48 -1 20 -10 -36 -11 -129 -3 -208 18 -32 9 -60 13 -63 10 -3 -3 -1
-36 5 -74 7 -43 8 -90 2 -127 -14 -101 -8 -136 31 -172 46 -41 106 -54 262
-54 143 0 208 15 250 59 31 33 33 46 26 201 -6 150 35 214 226 354 322 233
529 629 608 1161 14 96 20 142 32 265 22 231 53 377 105 488 30 66 54 99 111
156 40 39 96 83 123 97 46 23 52 31 46 67 -4 32 -162 42 -256 17z"/>
</g>
</svg>
